# This file uses centimeters as units for non-parametric coordinates.

mtllib box1.mtl
g default
v -9.784056 -0.004587 -1.407167
v -3.679738 -0.004587 -1.407167
v -9.784056 6.099730 -1.407167
v -3.679738 6.099730 -1.407167
v -9.784056 6.099730 -7.511485
v -3.679738 6.099730 -7.511485
v -9.784056 -0.004587 -7.511485
v -3.679738 -0.004587 -7.511485
vt 0.000000 0.668453
vt 0.331547 0.668453
vt 0.331547 1.000000
vt 0.000000 1.000000
vt 0.000000 0.000000
vt 0.331547 0.000000
vt 0.331547 0.331547
vt 0.000000 0.331547
vt 0.000000 0.665774
vt 0.000000 0.334226
vt 0.331547 0.334226
vt 0.331547 0.665774
vt 0.334907 1.000000
vt 0.334907 0.668453
vt 0.666454 0.668453
vt 0.666454 1.000000
vt 0.334907 0.665774
vt 0.334907 0.334226
vt 0.666454 0.334226
vt 0.666454 0.665774
vt 0.334907 0.000000
vt 0.666454 0.000000
vt 0.666454 0.331547
vt 0.334907 0.331547
vn 0.000000 0.000000 1.000000
vn 0.000000 0.000000 1.000000
vn 0.000000 0.000000 1.000000
vn 0.000000 0.000000 1.000000
vn 0.000000 1.000000 0.000000
vn 0.000000 1.000000 0.000000
vn 0.000000 1.000000 0.000000
vn 0.000000 1.000000 0.000000
vn 0.000000 0.000000 -1.000000
vn 0.000000 0.000000 -1.000000
vn 0.000000 0.000000 -1.000000
vn 0.000000 0.000000 -1.000000
vn 0.000000 -1.000000 0.000000
vn 0.000000 -1.000000 0.000000
vn 0.000000 -1.000000 0.000000
vn 0.000000 -1.000000 0.000000
vn 1.000000 0.000000 0.000000
vn 1.000000 0.000000 0.000000
vn 1.000000 0.000000 0.000000
vn 1.000000 0.000000 0.000000
vn -1.000000 0.000000 0.000000
vn -1.000000 0.000000 0.000000
vn -1.000000 0.000000 0.000000
vn -1.000000 0.000000 0.000000
s off
g polySurface4 lightTest
usemtl blinn2SG
f 1/17/1 2/18/2 4/19/3 3/20/4
f 3/9/5 4/10/6 6/11/7 5/12/8
f 5/21/9 6/22/10 8/23/11 7/24/12
f 7/13/13 8/14/14 2/15/15 1/16/16
f 2/1/17 8/2/18 6/3/19 4/4/20
f 7/5/21 1/6/22 3/7/23 5/8/24
