# This file uses centimeters as units for non-parametric coordinates.

mtllib Box2.mtl
g default
v 6.017821 -0.004587 -7.282830
v 2.011506 -0.004587 -2.677166
v 6.017821 6.099730 -7.282830
v 2.011506 6.099730 -2.677166
v 10.623484 6.099730 -3.276515
v 6.617169 6.099730 1.329149
v 10.623484 -0.004587 -3.276515
v 6.617169 -0.004587 1.329149
vt 0.666453 0.334226
vt 0.666453 0.331547
vt 0.334906 1.000000
vt 0.000000 0.000000
vt 0.331547 0.331547
vt 0.000000 0.331547
vt 0.331547 0.665773
vt 0.000001 0.665774
vt 0.000000 0.334227
vt 0.334907 0.000000
vt 0.666454 0.668453
vt 0.666454 1.000000
vt 0.331547 0.334226
vt 0.000000 1.000000
vt 0.331547 0.000000
vt 0.666454 0.000000
vt 0.334906 0.331547
vt 0.331547 0.668453
vt 0.334907 0.665774
vt 0.334906 0.334227
vt 0.334906 0.668453
vt 0.331547 1.000000
vt 0.000000 0.668453
vt 0.666454 0.665773
vn -0.754493 0.000000 -0.656308
vn -0.754493 0.000000 -0.656308
vn -0.754493 0.000000 -0.656308
vn -0.754493 0.000000 -0.656308
vn 0.000000 1.000000 0.000000
vn 0.000000 1.000000 0.000000
vn 0.000000 1.000000 0.000000
vn 0.000000 1.000000 0.000000
vn 0.754493 0.000000 0.656308
vn 0.754493 0.000000 0.656308
vn 0.754493 0.000000 0.656308
vn 0.754493 0.000000 0.656308
vn 0.000000 -1.000000 0.000000
vn 0.000000 -1.000000 0.000000
vn 0.000000 -1.000000 0.000000
vn 0.000000 -1.000000 0.000000
vn -0.656308 0.000000 0.754493
vn -0.656308 0.000000 0.754493
vn -0.656308 0.000000 0.754493
vn -0.656308 0.000000 0.754493
vn 0.656308 0.000000 -0.754493
vn 0.656308 0.000000 -0.754493
vn 0.656308 0.000000 -0.754493
vn 0.656308 0.000000 -0.754493
s off
g polySurface6 lightTest
usemtl blinn2SG
f 1/23/1 2/18/2 4/22/3 3/14/4
f 3/4/5 4/15/6 6/5/7 5/6/8
f 5/7/9 6/8/10 8/9/11 7/13/12
f 7/10/13 8/16/14 2/2/15 1/17/16
f 2/21/17 8/11/18 6/12/19 4/3/20
f 7/20/21 1/1/22 3/24/23 5/19/24
