# This file uses meters as units for non-parametric coordinates.

mtllib Button2.mtl
g default
v 126.722176 99.986000 17.233631
v 126.378426 100.103691 16.732817
v 125.863968 100.182327 16.398184
v 125.257126 100.209938 16.280674
v 124.650284 100.182327 16.398184
v 124.135826 100.103691 16.732815
v 123.792076 99.986000 17.233631
v 123.671364 99.847176 17.824383
v 123.792076 99.708351 18.415134
v 124.135826 99.590660 18.915949
v 124.650284 99.512024 19.250582
v 125.257126 99.484413 19.368092
v 125.863968 99.512024 19.250582
v 126.378426 99.590660 18.915951
v 126.722176 99.708351 18.415134
v 126.842888 99.847176 17.824383
v 125.616043 100.792114 17.893723
v 125.531830 100.820946 17.771030
v 125.405792 100.840218 17.689049
v 125.257126 100.846977 17.660263
v 125.108459 100.840218 17.689049
v 124.982422 100.820946 17.771030
v 124.898209 100.792114 17.893723
v 124.868637 100.758110 18.038448
v 124.898209 100.724098 18.183172
v 124.982422 100.695267 18.305866
v 125.108459 100.676003 18.387848
v 125.257126 100.669235 18.416632
v 125.405792 100.676003 18.387848
v 125.531830 100.695267 18.305866
v 125.616043 100.724098 18.183172
v 125.645615 100.758110 18.038448
v 125.543152 100.172340 17.779091
v 125.476044 100.195320 17.681314
v 125.375603 100.210670 17.615982
v 125.257126 100.216064 17.593042
v 125.138649 100.210670 17.615982
v 125.038208 100.195320 17.681314
v 124.971100 100.172340 17.779091
v 124.947533 100.145241 17.894426
v 124.971100 100.118134 18.009762
v 125.038208 100.095154 18.107538
v 125.138649 100.079803 18.172871
v 125.257126 100.074417 18.195810
v 125.375603 100.079803 18.172871
v 125.476044 100.095154 18.107538
v 125.543152 100.118134 18.009762
v 125.566719 100.145241 17.894426
v 125.543152 101.052673 17.985966
v 125.476044 101.075653 17.888189
v 125.375603 101.091003 17.822857
v 125.257126 101.096397 17.799915
v 125.138649 101.091003 17.822857
v 125.038208 101.075653 17.888187
v 124.971100 101.052673 17.985966
v 124.947533 101.025566 18.101301
v 124.971100 100.998466 18.216635
v 125.038208 100.975487 18.314413
v 125.138649 100.960136 18.379744
v 125.257126 100.954742 18.402685
v 125.375603 100.960136 18.379744
v 125.476044 100.975487 18.314413
v 125.543152 100.998466 18.216635
v 125.566719 101.025566 18.101301
v 125.532181 101.074532 17.995770
v 125.467644 101.096626 17.901743
v 125.371063 101.111389 17.838921
v 125.257126 101.116577 17.816856
v 125.143188 101.111389 17.838919
v 125.046600 101.096626 17.901743
v 124.982071 101.074532 17.995770
v 124.959404 101.048470 18.106682
v 124.982071 101.022408 18.217594
v 125.046600 101.000313 18.311621
v 125.143188 100.985550 18.374445
v 125.257126 100.980362 18.396507
v 125.371063 100.985550 18.374445
v 125.467644 101.000313 18.311621
v 125.532181 101.022408 18.217594
v 125.554848 101.048470 18.106682
v 125.503799 101.100014 18.013836
v 125.445923 101.119827 17.929508
v 125.359299 101.133072 17.873167
v 125.257126 101.137718 17.853382
v 125.154953 101.133072 17.873167
v 125.068329 101.119827 17.929508
v 125.010452 101.100014 18.013836
v 124.990128 101.076637 18.113302
v 125.010452 101.053268 18.212769
v 125.068329 101.033447 18.297094
v 125.154953 101.020210 18.353437
v 125.257126 101.015556 18.373222
v 125.359299 101.020210 18.353437
v 125.445923 101.033447 18.297094
v 125.503799 101.053268 18.212769
v 125.524124 101.076637 18.113302
v 125.257126 101.078018 18.113626
vt 0.539608 0.006200
vt 0.539655 0.183944
vt 0.509755 0.183947
vt 0.509708 0.006201
vt 0.569508 0.006199
vt 0.569555 0.183941
vt 0.599484 0.006198
vt 0.599508 0.183939
vt 0.629460 0.006199
vt 0.629460 0.183940
vt 0.659360 0.006199
vt 0.659360 0.183940
vt 0.689261 0.006199
vt 0.689261 0.183940
vt 0.719161 0.006199
vt 0.719161 0.183940
vt 0.749061 0.006199
vt 0.749061 0.183940
vt 0.778962 0.006199
vt 0.778962 0.183940
vt 0.808862 0.006199
vt 0.808862 0.183940
vt 0.838762 0.006199
vt 0.838762 0.183940
vt 0.868663 0.006199
vt 0.868663 0.183940
vt 0.898563 0.006199
vt 0.898563 0.183940
vt 0.928463 0.006199
vt 0.928463 0.183940
vt 0.958363 0.006199
vt 0.958363 0.183940
vt 0.988264 0.006199
vt 0.988264 0.183940
vt 0.539566 0.231459
vt 0.509966 0.231462
vt 0.569524 0.231458
vt 0.599495 0.231456
vt 0.629489 0.231458
vt 0.659446 0.231458
vt 0.689404 0.231459
vt 0.719361 0.231459
vt 0.749319 0.231459
vt 0.779277 0.231459
vt 0.809234 0.231460
vt 0.839192 0.231460
vt 0.869149 0.231461
vt 0.899107 0.231461
vt 0.929064 0.231461
vt 0.959022 0.231462
vt 0.988979 0.231462
vt 0.539468 0.366437
vt 0.509453 0.366436
vt 0.569482 0.366438
vt 0.599497 0.366439
vt 0.629512 0.366439
vt 0.659527 0.366440
vt 0.689541 0.366441
vt 0.719556 0.366442
vt 0.749571 0.366442
vt 0.779586 0.366443
vt 0.809601 0.366444
vt 0.839615 0.366445
vt 0.869630 0.366445
vt 0.899645 0.366446
vt 0.929660 0.366447
vt 0.959675 0.366448
vt 0.989689 0.366448
vt 0.539462 0.408350
vt 0.509447 0.408350
vt 0.569477 0.408351
vt 0.599492 0.408352
vt 0.629506 0.408353
vt 0.659521 0.408353
vt 0.689536 0.408354
vt 0.719551 0.408355
vt 0.749565 0.408356
vt 0.779580 0.408356
vt 0.809595 0.408357
vt 0.839610 0.408358
vt 0.869625 0.408358
vt 0.899639 0.408359
vt 0.929654 0.408360
vt 0.959669 0.408361
vt 0.989684 0.408361
vt 0.539456 0.461897
vt 0.509442 0.461896
vt 0.569471 0.461898
vt 0.599486 0.461898
vt 0.629501 0.461899
vt 0.659516 0.461900
vt 0.689530 0.461901
vt 0.719545 0.461901
vt 0.749560 0.461902
vt 0.779575 0.461903
vt 0.809590 0.461904
vt 0.839604 0.461904
vt 0.869619 0.461905
vt 0.899634 0.461906
vt 0.929649 0.461907
vt 0.959663 0.461907
vt 0.989678 0.461908
vt 0.938106 0.708272
vt 0.755167 0.670189
vt 0.936787 0.637407
vt 0.912206 0.774247
vt 0.863029 0.825288
vt 0.798063 0.853625
vt 0.727198 0.854944
vt 0.661223 0.829044
vt 0.610182 0.779867
vt 0.581845 0.714902
vt 0.580526 0.644037
vt 0.606426 0.578062
vt 0.655603 0.527020
vt 0.720569 0.498683
vt 0.791433 0.497364
vt 0.857409 0.523265
vt 0.908450 0.572441
vn 0.435438 0.866622 -0.243642
vn 0.435437 0.866622 -0.243642
vn 0.568927 0.820917 -0.049165
vn 0.568926 0.820918 -0.049166
vn 0.235656 0.897159 -0.373594
vn 0.235655 0.897159 -0.373594
vn -0.000001 0.907878 -0.419234
vn -0.000001 0.907878 -0.419234
vn -0.235655 0.897159 -0.373594
vn -0.235655 0.897159 -0.373594
vn -0.435432 0.866627 -0.243632
vn -0.435431 0.866627 -0.243633
vn -0.568923 0.820920 -0.049159
vn -0.568923 0.820920 -0.049158
vn -0.615802 0.767007 0.180245
vn -0.615802 0.767007 0.180245
vn -0.568921 0.713100 0.409656
vn -0.568921 0.713100 0.409655
vn -0.435431 0.667400 0.604133
vn -0.435431 0.667400 0.604133
vn -0.235656 0.636859 0.734082
vn -0.235655 0.636859 0.734082
vn -0.000000 0.626137 0.779713
vn -0.000000 0.626137 0.779713
vn 0.235655 0.636858 0.734083
vn 0.235654 0.636858 0.734084
vn 0.435434 0.667398 0.604133
vn 0.435434 0.667398 0.604133
vn 0.568923 0.713102 0.409650
vn 0.568923 0.713102 0.409649
vn 0.615803 0.767007 0.180245
vn 0.615803 0.767006 0.180245
vn -0.916713 0.034192 0.398080
vn -0.701612 -0.039452 0.711467
vn -0.701613 -0.039452 0.711465
vn -0.916712 0.034192 0.398084
vn -0.379707 -0.088660 0.920848
vn -0.379709 -0.088659 0.920848
vn -0.000000 -0.105951 0.994371
vn -0.000000 -0.105951 0.994371
vn 0.379708 -0.088671 0.920847
vn 0.379709 -0.088671 0.920847
vn 0.701615 -0.039458 0.711463
vn 0.701616 -0.039458 0.711462
vn 0.916713 0.034187 0.398081
vn 0.916712 0.034186 0.398084
vn 0.992237 0.121063 0.028443
vn 0.992237 0.121062 0.028445
vn 0.916709 0.207926 -0.341191
vn 0.916707 0.207927 -0.341195
vn 0.701618 0.281542 -0.654574
vn 0.701618 0.281541 -0.654573
vn 0.379701 0.330739 -0.863967
vn 0.379703 0.330739 -0.863966
vn 0.000000 0.348037 -0.937481
vn 0.000000 0.348037 -0.937481
vn -0.379698 0.330760 -0.863960
vn -0.379701 0.330760 -0.863959
vn -0.701620 0.281542 -0.654572
vn -0.701620 0.281542 -0.654571
vn -0.916714 0.207905 -0.341190
vn -0.916712 0.207906 -0.341194
vn -0.992238 0.121057 0.028443
vn -0.992238 0.121057 0.028444
vn 0.923885 0.087535 -0.372524
vn 0.707112 0.161754 -0.688352
vn 0.707061 0.173302 -0.685588
vn 0.923819 0.099082 -0.369785
vn 0.382669 0.211358 -0.899384
vn 0.382642 0.222902 -0.896604
vn -0.000000 0.228768 -0.973481
vn 0.000000 0.240309 -0.970697
vn -0.382672 0.211332 -0.899389
vn -0.382643 0.222874 -0.896611
vn -0.707112 0.161745 -0.688354
vn -0.707062 0.173291 -0.685590
vn -0.923885 0.087543 -0.372523
vn -0.923819 0.099090 -0.369783
vn -1.000000 -0.000009 0.000001
vn -0.999930 0.011541 0.002716
vn -0.923883 -0.087561 0.372523
vn -0.923819 -0.076004 0.375209
vn -0.707115 -0.161770 0.688345
vn -0.707066 -0.150202 0.691012
vn -0.382675 -0.211350 0.899384
vn -0.382646 -0.199774 0.902038
vn 0.000000 -0.228762 0.973483
vn 0.000000 -0.217190 0.976129
vn 0.382673 -0.211358 0.899383
vn 0.382643 -0.199785 0.902037
vn 0.707112 -0.161770 0.688348
vn 0.707062 -0.150199 0.691016
vn 0.923882 -0.087545 0.372529
vn 0.923818 -0.075985 0.375215
vn 1.000000 0.000000 -0.000001
vn 0.999930 0.011547 0.002714
vn 0.557212 0.726756 -0.401673
vn 0.728111 0.668207 -0.152817
vn 0.301608 0.765868 -0.567872
vn 0.000008 0.779581 -0.626301
vn -0.301578 0.765839 -0.567926
vn -0.557224 0.726779 -0.401614
vn -0.728082 0.668253 -0.152755
vn -0.788108 0.599220 0.140791
vn -0.728117 0.530211 0.434422
vn -0.557285 0.471757 0.683285
vn -0.301620 0.432711 0.849580
vn -0.000005 0.418908 0.908029
vn 0.301608 0.432707 0.849587
vn 0.557268 0.471800 0.683270
vn 0.728119 0.530204 0.434426
vn 0.788139 0.599178 0.140795
vn 0.154127 0.985337 0.073187
vn 0.201348 0.969164 0.142055
vn 0.083407 0.996143 0.027247
vn 0.000000 0.999939 0.011072
vn -0.083402 0.996144 0.027237
vn -0.154119 0.985337 0.073203
vn -0.201337 0.969165 0.142065
vn -0.217941 0.950083 0.223258
vn -0.201325 0.931013 0.304440
vn -0.154104 0.914815 0.373316
vn -0.083387 0.904015 0.419290
vn -0.000002 0.900226 0.435423
vn 0.083375 0.904045 0.419227
vn 0.154105 0.914831 0.373279
vn 0.201330 0.931010 0.304444
vn 0.217941 0.950083 0.223256
vn 0.000000 0.973483 0.228760
s 1
g polySurface15 pCylinder8
usemtl blinn6SG
f 2/1/1 18/2/2 17/3/3 1/4/4
f 3/5/5 19/6/6 18/2/2 2/1/1
f 4/7/7 20/8/8 19/6/6 3/5/5
f 5/9/9 21/10/10 20/8/8 4/7/7
f 6/11/11 22/12/12 21/10/10 5/9/9
f 7/13/13 23/14/14 22/12/12 6/11/11
f 8/15/15 24/16/16 23/14/14 7/13/13
f 9/17/17 25/18/18 24/16/16 8/15/15
f 10/19/19 26/20/20 25/18/18 9/17/17
f 11/21/21 27/22/22 26/20/20 10/19/19
f 12/23/23 28/24/24 27/22/22 11/21/21
f 13/25/25 29/26/26 28/24/24 12/23/23
f 14/27/27 30/28/28 29/26/26 13/25/25
f 15/29/29 31/30/30 30/28/28 14/27/27
f 16/31/31 32/32/32 31/30/30 15/29/29
f 1/33/4 17/34/3 32/32/32 16/31/31
s 2
f 17/3/33 18/2/34 34/35/35 33/36/36
f 18/2/34 19/6/37 35/37/38 34/35/35
f 19/6/37 20/8/39 36/38/40 35/37/38
f 20/8/39 21/10/41 37/39/42 36/38/40
f 21/10/41 22/12/43 38/40/44 37/39/42
f 22/12/43 23/14/45 39/41/46 38/40/44
f 23/14/45 24/16/47 40/42/48 39/41/46
f 24/16/47 25/18/49 41/43/50 40/42/48
f 25/18/49 26/20/51 42/44/52 41/43/50
f 26/20/51 27/22/53 43/45/54 42/44/52
f 27/22/53 28/24/55 44/46/56 43/45/54
f 28/24/55 29/26/57 45/47/58 44/46/56
f 29/26/57 30/28/59 46/48/60 45/47/58
f 30/28/59 31/30/61 47/49/62 46/48/60
f 31/30/61 32/32/63 48/50/64 47/49/62
f 32/32/63 17/34/33 33/51/36 48/50/64
s 3
f 33/36/65 34/35/66 50/52/67 49/53/68
f 34/35/66 35/37/69 51/54/70 50/52/67
f 35/37/69 36/38/71 52/55/72 51/54/70
f 36/38/71 37/39/73 53/56/74 52/55/72
f 37/39/73 38/40/75 54/57/76 53/56/74
f 38/40/75 39/41/77 55/58/78 54/57/76
f 39/41/77 40/42/79 56/59/80 55/58/78
f 40/42/79 41/43/81 57/60/82 56/59/80
f 41/43/81 42/44/83 58/61/84 57/60/82
f 42/44/83 43/45/85 59/62/86 58/61/84
f 43/45/85 44/46/87 60/63/88 59/62/86
f 44/46/87 45/47/89 61/64/90 60/63/88
f 45/47/89 46/48/91 62/65/92 61/64/90
f 46/48/91 47/49/93 63/66/94 62/65/92
f 47/49/93 48/50/95 64/67/96 63/66/94
f 48/50/95 33/51/65 49/68/68 64/67/96
f 49/53/68 50/52/67 66/69/97 65/70/98
f 50/52/67 51/54/70 67/71/99 66/69/97
f 51/54/70 52/55/72 68/72/100 67/71/99
f 52/55/72 53/56/74 69/73/101 68/72/100
f 53/56/74 54/57/76 70/74/102 69/73/101
f 54/57/76 55/58/78 71/75/103 70/74/102
f 55/58/78 56/59/80 72/76/104 71/75/103
f 56/59/80 57/60/82 73/77/105 72/76/104
f 57/60/82 58/61/84 74/78/106 73/77/105
f 58/61/84 59/62/86 75/79/107 74/78/106
f 59/62/86 60/63/88 76/80/108 75/79/107
f 60/63/88 61/64/90 77/81/109 76/80/108
f 61/64/90 62/65/92 78/82/110 77/81/109
f 62/65/92 63/66/94 79/83/111 78/82/110
f 63/66/94 64/67/96 80/84/112 79/83/111
f 64/67/96 49/68/68 65/85/98 80/84/112
f 65/70/98 66/69/97 82/86/113 81/87/114
f 66/69/97 67/71/99 83/88/115 82/86/113
f 67/71/99 68/72/100 84/89/116 83/88/115
f 68/72/100 69/73/101 85/90/117 84/89/116
f 69/73/101 70/74/102 86/91/118 85/90/117
f 70/74/102 71/75/103 87/92/119 86/91/118
f 71/75/103 72/76/104 88/93/120 87/92/119
f 72/76/104 73/77/105 89/94/121 88/93/120
f 73/77/105 74/78/106 90/95/122 89/94/121
f 74/78/106 75/79/107 91/96/123 90/95/122
f 75/79/107 76/80/108 92/97/124 91/96/123
f 76/80/108 77/81/109 93/98/125 92/97/124
f 77/81/109 78/82/110 94/99/126 93/98/125
f 78/82/110 79/83/111 95/100/127 94/99/126
f 79/83/111 80/84/112 96/101/128 95/100/127
f 80/84/112 65/85/98 81/102/114 96/101/128
f 82/103/113 97/104/129 81/105/114
f 83/106/115 97/104/129 82/103/113
f 84/107/116 97/104/129 83/106/115
f 85/108/117 97/104/129 84/107/116
f 86/109/118 97/104/129 85/108/117
f 87/110/119 97/104/129 86/109/118
f 88/111/120 97/104/129 87/110/119
f 89/112/121 97/104/129 88/111/120
f 90/113/122 97/104/129 89/112/121
f 91/114/123 97/104/129 90/113/122
f 92/115/124 97/104/129 91/114/123
f 93/116/125 97/104/129 92/115/124
f 94/117/126 97/104/129 93/116/125
f 95/118/127 97/104/129 94/117/126
f 96/119/128 97/104/129 95/118/127
f 81/105/114 97/104/129 96/119/128
