# This file uses meters as units for non-parametric coordinates.

mtllib Screen1.mtl
g default
v -29.313263 134.957709 3.491463
v -23.209738 134.749541 3.748508
v -17.106035 134.605002 3.954636
v -11.002159 134.523948 4.109856
v -4.898104 134.506247 4.214184
v 1.206132 134.551780 4.267643
v 7.310548 134.660407 4.270248
v 13.415143 134.831984 4.222015
v 19.519920 135.066405 4.122959
v 25.624880 135.363517 3.973099
v 31.730024 135.723197 3.772446
v -30.231689 139.549544 3.043388
v -24.034851 139.385436 3.657364
v -17.792645 139.275702 4.141731
v -11.516027 139.220107 4.496399
v -5.215957 139.218360 4.721287
v 1.096613 139.270194 4.816319
v 7.410724 139.375350 4.781406
v 13.715422 139.533553 4.616470
v 19.999748 139.744536 4.321430
v 26.252747 140.008048 3.896198
v 32.463463 140.323806 3.340702
v -30.965649 144.136802 2.553370
v -24.696690 144.039527 3.440834
v -18.347103 143.982238 4.138397
v -11.936386 143.964522 4.645899
v -5.484009 143.986037 4.963181
v 0.990547 144.046401 5.090084
v 7.467806 144.145240 5.026451
v 13.928289 144.282172 4.772123
v 20.352520 144.456839 4.326942
v 26.721012 144.668868 3.690748
v 33.014297 144.917884 2.863384
v -31.514763 148.719481 2.021412
v -25.194710 148.704383 3.099865
v -18.768772 148.711303 3.946320
v -12.262508 148.739791 4.560566
v -5.701485 148.789389 4.942390
v 0.888729 148.859664 5.091578
v 7.482570 148.950171 5.007914
v 14.054472 149.060439 4.691189
v 20.578869 149.190039 4.141186
v 27.030199 149.338523 3.357695
v 33.382889 149.505431 2.340500
v -31.878643 153.297591 1.447518
v -25.528399 153.372535 2.635406
v -19.056999 153.449668 3.567186
v -12.493660 153.528502 4.242613
v -5.867604 153.608535 4.661442
v 0.791953 153.689284 4.823426
v 7.455794 153.770255 4.728318
v 14.094701 153.850943 4.375872
v 20.679455 153.930884 3.765843
v 27.180840 154.009551 2.897985
v 33.569641 154.086470 1.772051
v -32.056900 157.871138 0.831695
v -25.697208 158.036513 2.048407
v -19.211138 158.184066 3.002677
v -12.629119 158.313247 3.694247
v -5.981590 158.423568 4.122859
v 0.701013 158.514525 4.288258
v 7.388257 158.585601 4.190186
v 14.049704 158.636306 3.828385
v 20.654921 158.666091 3.202599
v 27.173466 158.674483 2.312570
v 33.574917 158.660994 1.158042
v -32.049168 162.440093 0.173944
v -25.700621 162.688887 1.339819
v -19.230545 162.901213 2.254478
v -12.668154 163.076628 2.917677
v -6.042664 163.214614 3.329168
v 0.616705 163.314681 3.488706
v 7.280735 163.376326 3.396044
v 13.920208 163.399077 3.050936
v 20.505909 163.382445 2.453136
v 27.008614 163.325896 1.602399
v 33.399109 163.228987 0.498477
v -31.855049 167.004500 -0.525730
v -25.538099 167.322158 0.510590
v -19.114574 167.587889 1.324276
v -12.610035 167.801253 1.915115
v -6.050048 167.961760 2.282894
v 0.539821 168.068999 2.427399
v 7.134007 168.122542 2.348417
v 13.706944 168.121901 2.045736
v 20.233067 168.066619 1.519142
v 26.686810 167.956313 0.768419
v 33.042606 167.790465 -0.206642
v -31.474157 171.564345 -1.267324
v -25.209114 171.928923 -0.438332
v -18.862579 172.230819 0.213751
v -12.454035 172.469664 0.688768
v -6.002965 172.645140 0.986561
v 0.471157 172.756804 1.106964
v 6.948851 172.804320 1.049828
v 13.410639 172.787322 0.814995
v 19.837044 172.705428 0.402298
v 26.208584 172.558257 -0.188417
v 32.505783 172.345427 -0.957308
v -30.906124 176.119628 -2.050835
v -24.713127 176.501662 -1.505997
v -18.473911 176.816741 -1.075409
v -12.199426 177.064528 -0.759151
v -5.900637 177.244841 -0.557308
v 0.411506 177.357360 -0.469959
v 6.726045 177.401839 -0.497189
v 13.032022 177.377974 -0.639080
v 19.318481 177.285552 -0.895710
v 25.574469 177.124282 -1.267162
v 31.789026 176.893889 -1.753521
v -30.150558 180.670348 -2.876259
v -24.049620 181.032973 -2.691456
v -17.947924 181.332366 -2.541519
v -11.845481 181.568419 -2.426437
v -5.742285 181.740981 -2.346188
v 0.361664 181.849929 -2.300755
v 6.466367 181.895110 -2.290123
v 12.571823 181.876433 -2.314274
v 18.678032 181.793761 -2.373196
v 24.785000 181.646941 -2.466869
v 30.892721 181.435836 -2.595272
vt 0.000000 0.000000
vt 0.100000 0.000000
vt 0.200000 0.000000
vt 0.300000 0.000000
vt 0.400000 0.000000
vt 0.500000 0.000000
vt 0.600000 0.000000
vt 0.700000 0.000000
vt 0.800000 0.000000
vt 0.900000 0.000000
vt 1.000000 0.000000
vt 0.000000 0.100000
vt 0.100000 0.100000
vt 0.200000 0.100000
vt 0.300000 0.100000
vt 0.400000 0.100000
vt 0.500000 0.100000
vt 0.600000 0.100000
vt 0.700000 0.100000
vt 0.800000 0.100000
vt 0.900000 0.100000
vt 1.000000 0.100000
vt 0.000000 0.200000
vt 0.100000 0.200000
vt 0.200000 0.200000
vt 0.300000 0.200000
vt 0.400000 0.200000
vt 0.500000 0.200000
vt 0.600000 0.200000
vt 0.700000 0.200000
vt 0.800000 0.200000
vt 0.900000 0.200000
vt 1.000000 0.200000
vt 0.000000 0.300000
vt 0.100000 0.300000
vt 0.200000 0.300000
vt 0.300000 0.300000
vt 0.400000 0.300000
vt 0.500000 0.300000
vt 0.600000 0.300000
vt 0.700000 0.300000
vt 0.800000 0.300000
vt 0.900000 0.300000
vt 1.000000 0.300000
vt 0.000000 0.400000
vt 0.100000 0.400000
vt 0.200000 0.400000
vt 0.300000 0.400000
vt 0.400000 0.400000
vt 0.500000 0.400000
vt 0.600000 0.400000
vt 0.700000 0.400000
vt 0.800000 0.400000
vt 0.900000 0.400000
vt 1.000000 0.400000
vt 0.000000 0.500000
vt 0.100000 0.500000
vt 0.200000 0.500000
vt 0.300000 0.500000
vt 0.400000 0.500000
vt 0.500000 0.500000
vt 0.600000 0.500000
vt 0.700000 0.500000
vt 0.800000 0.500000
vt 0.900000 0.500000
vt 1.000000 0.500000
vt 0.000000 0.600000
vt 0.100000 0.600000
vt 0.200000 0.600000
vt 0.300000 0.600000
vt 0.400000 0.600000
vt 0.500000 0.600000
vt 0.600000 0.600000
vt 0.700000 0.600000
vt 0.800000 0.600000
vt 0.900000 0.600000
vt 1.000000 0.600000
vt 0.000000 0.700000
vt 0.100000 0.700000
vt 0.200000 0.700000
vt 0.300000 0.700000
vt 0.400000 0.700000
vt 0.500000 0.700000
vt 0.600000 0.700000
vt 0.700000 0.700000
vt 0.800000 0.700000
vt 0.900000 0.700000
vt 1.000000 0.700000
vt 0.000000 0.800000
vt 0.100000 0.800000
vt 0.200000 0.800000
vt 0.300000 0.800000
vt 0.400000 0.800000
vt 0.500000 0.800000
vt 0.600000 0.800000
vt 0.700000 0.800000
vt 0.800000 0.800000
vt 0.900000 0.800000
vt 1.000000 0.800000
vt 0.000000 0.900000
vt 0.100000 0.900000
vt 0.200000 0.900000
vt 0.300000 0.900000
vt 0.400000 0.900000
vt 0.500000 0.900000
vt 0.600000 0.900000
vt 0.700000 0.900000
vt 0.800000 0.900000
vt 0.900000 0.900000
vt 1.000000 0.900000
vt 0.000000 1.000000
vt 0.100000 1.000000
vt 0.200000 1.000000
vt 0.300000 1.000000
vt 0.400000 1.000000
vt 0.500000 1.000000
vt 0.600000 1.000000
vt 0.700000 1.000000
vt 0.800000 1.000000
vt 0.900000 1.000000
vt 1.000000 1.000000
vn -0.069204 0.045159 0.996580
vn -0.061857 0.008426 0.998049
vn -0.084180 0.024416 0.996151
vn -0.097350 0.052512 0.993864
vn -0.048229 -0.045522 0.997799
vn -0.064805 -0.023706 0.997616
vn -0.033584 -0.082832 0.995998
vn -0.044666 -0.056980 0.997376
vn -0.018449 -0.104625 0.994341
vn -0.024200 -0.076393 0.996784
vn -0.003200 -0.111696 0.993737
vn -0.003692 -0.082626 0.996574
vn 0.011855 -0.104326 0.994472
vn 0.016646 -0.075918 0.996975
vn 0.026404 -0.082229 0.996264
vn 0.036598 -0.056024 0.997759
vn 0.040066 -0.044602 0.998201
vn 0.055875 -0.022255 0.998190
vn 0.052313 0.009682 0.998584
vn 0.074038 0.026382 0.996906
vn 0.058690 0.046222 0.997206
vn 0.086206 0.054898 0.994764
vn -0.121059 0.047810 0.991493
vn -0.137765 0.067853 0.988138
vn -0.091849 0.014305 0.995670
vn -0.062625 -0.008714 0.997999
vn -0.033515 -0.022016 0.999196
vn -0.004545 -0.026082 0.999650
vn 0.024304 -0.021072 0.999483
vn 0.053052 -0.006820 0.998569
vn 0.081666 0.017160 0.996512
vn 0.110007 0.051639 0.992589
vn 0.125981 0.072218 0.989401
vn -0.146270 0.074423 0.986441
vn -0.165404 0.087106 0.982372
vn -0.110335 0.053675 0.992444
vn -0.074952 0.039541 0.996403
vn -0.040000 0.031509 0.998703
vn -0.005314 0.029281 0.999557
vn 0.029293 0.032758 0.999034
vn 0.064006 0.042047 0.997063
vn 0.098986 0.057459 0.993429
vn 0.134340 0.079508 0.987740
vn 0.152987 0.092822 0.983859
vn -0.160988 0.103090 0.981558
vn -0.181500 0.108928 0.977339
vn -0.121172 0.093808 0.988189
vn -0.082259 0.087618 0.992752
vn -0.043968 0.084277 0.995472
vn -0.006012 0.083648 0.996477
vn 0.031901 0.085691 0.995811
vn 0.070062 0.090460 0.993433
vn 0.108754 0.098109 0.989215
vn 0.148250 0.108894 0.982937
vn 0.168503 0.115430 0.978919
vn -0.165933 0.132855 0.977147
vn -0.186827 0.132171 0.973461
vn -0.124901 0.134257 0.983044
vn -0.084907 0.135432 0.987142
vn -0.045605 0.136413 0.989602
vn -0.006651 0.137221 0.990518
vn 0.032295 0.137871 0.989924
vn 0.071570 0.138370 0.987791
vn 0.111516 0.138717 0.984034
vn 0.152479 0.138904 0.978497
vn 0.173330 0.138958 0.975011
vn -0.161369 0.162865 0.973363
vn -0.181667 0.155789 0.970941
vn -0.121723 0.174642 0.977079
vn -0.083036 0.182930 0.979613
vn -0.044985 0.188052 0.981128
vn -0.007239 0.190203 0.981718
vn 0.030531 0.189452 0.981415
vn 0.068657 0.185756 0.980194
vn 0.107472 0.178951 0.977971
vn 0.147303 0.168743 0.974591
vn 0.167768 0.162415 0.972356
vn -0.147100 0.192262 0.970256
vn -0.165805 0.178723 0.969828
vn -0.111512 0.214587 0.970318
vn -0.076573 0.230055 0.970161
vn -0.042078 0.239323 0.970028
vn -0.007786 0.242784 0.970049
vn 0.026565 0.240576 0.970267
vn 0.061240 0.232592 0.970644
vn 0.096490 0.218476 0.971060
vn 0.132534 0.197602 0.971282
vn 0.151612 0.184789 0.971013
vn -0.122474 0.220072 0.967765
vn -0.138537 0.199786 0.969996
vn -0.093805 0.253645 0.962738
vn -0.065225 0.276711 0.958737
vn -0.036750 0.290329 0.956221
vn -0.008300 0.295137 0.955419
vn 0.020245 0.291361 0.956399
vn 0.049014 0.278812 0.959094
vn 0.078099 0.256883 0.963282
vn 0.107515 0.224554 0.968512
vn 0.124152 0.204937 0.970869
vn -0.086375 0.245071 0.965650
vn -0.098685 0.217522 0.971054
vn -0.067777 0.291215 0.954254
vn -0.048461 0.322723 0.945252
vn -0.028741 0.341130 0.939577
vn -0.008787 0.347404 0.937674
vn 0.011300 0.341884 0.939674
vn 0.031430 0.324265 0.945444
vn 0.051459 0.293613 0.954538
vn 0.071117 0.248419 0.966039
vn 0.084195 0.221440 0.971533
vn -0.064589 0.261178 0.963127
vn -0.071359 0.226243 0.971454
vn -0.051886 0.312176 0.948606
vn -0.038134 0.346864 0.937140
vn -0.023754 0.367034 0.929904
vn -0.009022 0.373822 0.927457
vn 0.005856 0.367627 0.929955
vn 0.020685 0.348087 0.937234
vn 0.035218 0.314105 0.948735
vn 0.049089 0.263928 0.963293
vn 0.056696 0.229380 0.971684
s 1
g pPlane1 group1
usemtl initialShadingGroup
f 1/1/1 2/2/2 13/13/3 12/12/4
f 2/2/2 3/3/5 14/14/6 13/13/3
f 3/3/5 4/4/7 15/15/8 14/14/6
f 4/4/7 5/5/9 16/16/10 15/15/8
f 5/5/9 6/6/11 17/17/12 16/16/10
f 6/6/11 7/7/13 18/18/14 17/17/12
f 7/7/13 8/8/15 19/19/16 18/18/14
f 8/8/15 9/9/17 20/20/18 19/19/16
f 9/9/17 10/10/19 21/21/20 20/20/18
f 10/10/19 11/11/21 22/22/22 21/21/20
f 12/12/4 13/13/3 24/24/23 23/23/24
f 13/13/3 14/14/6 25/25/25 24/24/23
f 14/14/6 15/15/8 26/26/26 25/25/25
f 15/15/8 16/16/10 27/27/27 26/26/26
f 16/16/10 17/17/12 28/28/28 27/27/27
f 17/17/12 18/18/14 29/29/29 28/28/28
f 18/18/14 19/19/16 30/30/30 29/29/29
f 19/19/16 20/20/18 31/31/31 30/30/30
f 20/20/18 21/21/20 32/32/32 31/31/31
f 21/21/20 22/22/22 33/33/33 32/32/32
f 23/23/24 24/24/23 35/35/34 34/34/35
f 24/24/23 25/25/25 36/36/36 35/35/34
f 25/25/25 26/26/26 37/37/37 36/36/36
f 26/26/26 27/27/27 38/38/38 37/37/37
f 27/27/27 28/28/28 39/39/39 38/38/38
f 28/28/28 29/29/29 40/40/40 39/39/39
f 29/29/29 30/30/30 41/41/41 40/40/40
f 30/30/30 31/31/31 42/42/42 41/41/41
f 31/31/31 32/32/32 43/43/43 42/42/42
f 32/32/32 33/33/33 44/44/44 43/43/43
f 34/34/35 35/35/34 46/46/45 45/45/46
f 35/35/34 36/36/36 47/47/47 46/46/45
f 36/36/36 37/37/37 48/48/48 47/47/47
f 37/37/37 38/38/38 49/49/49 48/48/48
f 38/38/38 39/39/39 50/50/50 49/49/49
f 39/39/39 40/40/40 51/51/51 50/50/50
f 40/40/40 41/41/41 52/52/52 51/51/51
f 41/41/41 42/42/42 53/53/53 52/52/52
f 42/42/42 43/43/43 54/54/54 53/53/53
f 43/43/43 44/44/44 55/55/55 54/54/54
f 45/45/46 46/46/45 57/57/56 56/56/57
f 46/46/45 47/47/47 58/58/58 57/57/56
f 47/47/47 48/48/48 59/59/59 58/58/58
f 48/48/48 49/49/49 60/60/60 59/59/59
f 49/49/49 50/50/50 61/61/61 60/60/60
f 50/50/50 51/51/51 62/62/62 61/61/61
f 51/51/51 52/52/52 63/63/63 62/62/62
f 52/52/52 53/53/53 64/64/64 63/63/63
f 53/53/53 54/54/54 65/65/65 64/64/64
f 54/54/54 55/55/55 66/66/66 65/65/65
f 56/56/57 57/57/56 68/68/67 67/67/68
f 57/57/56 58/58/58 69/69/69 68/68/67
f 58/58/58 59/59/59 70/70/70 69/69/69
f 59/59/59 60/60/60 71/71/71 70/70/70
f 60/60/60 61/61/61 72/72/72 71/71/71
f 61/61/61 62/62/62 73/73/73 72/72/72
f 62/62/62 63/63/63 74/74/74 73/73/73
f 63/63/63 64/64/64 75/75/75 74/74/74
f 64/64/64 65/65/65 76/76/76 75/75/75
f 65/65/65 66/66/66 77/77/77 76/76/76
f 67/67/68 68/68/67 79/79/78 78/78/79
f 68/68/67 69/69/69 80/80/80 79/79/78
f 69/69/69 70/70/70 81/81/81 80/80/80
f 70/70/70 71/71/71 82/82/82 81/81/81
f 71/71/71 72/72/72 83/83/83 82/82/82
f 72/72/72 73/73/73 84/84/84 83/83/83
f 73/73/73 74/74/74 85/85/85 84/84/84
f 74/74/74 75/75/75 86/86/86 85/85/85
f 75/75/75 76/76/76 87/87/87 86/86/86
f 76/76/76 77/77/77 88/88/88 87/87/87
f 78/78/79 79/79/78 90/90/89 89/89/90
f 79/79/78 80/80/80 91/91/91 90/90/89
f 80/80/80 81/81/81 92/92/92 91/91/91
f 81/81/81 82/82/82 93/93/93 92/92/92
f 82/82/82 83/83/83 94/94/94 93/93/93
f 83/83/83 84/84/84 95/95/95 94/94/94
f 84/84/84 85/85/85 96/96/96 95/95/95
f 85/85/85 86/86/86 97/97/97 96/96/96
f 86/86/86 87/87/87 98/98/98 97/97/97
f 87/87/87 88/88/88 99/99/99 98/98/98
f 89/89/90 90/90/89 101/101/100 100/100/101
f 90/90/89 91/91/91 102/102/102 101/101/100
f 91/91/91 92/92/92 103/103/103 102/102/102
f 92/92/92 93/93/93 104/104/104 103/103/103
f 93/93/93 94/94/94 105/105/105 104/104/104
f 94/94/94 95/95/95 106/106/106 105/105/105
f 95/95/95 96/96/96 107/107/107 106/106/106
f 96/96/96 97/97/97 108/108/108 107/107/107
f 97/97/97 98/98/98 109/109/109 108/108/108
f 98/98/98 99/99/99 110/110/110 109/109/109
f 100/100/101 101/101/100 112/112/111 111/111/112
f 101/101/100 102/102/102 113/113/113 112/112/111
f 102/102/102 103/103/103 114/114/114 113/113/113
f 103/103/103 104/104/104 115/115/115 114/114/114
f 104/104/104 105/105/105 116/116/116 115/115/115
f 105/105/105 106/106/106 117/117/117 116/116/116
f 106/106/106 107/107/107 118/118/118 117/117/117
f 107/107/107 108/108/108 119/119/119 118/118/118
f 108/108/108 109/109/109 120/120/120 119/119/119
f 109/109/109 110/110/110 121/121/121 120/120/120
